<mxfile host="65bd71144e">
    <diagram id="j4TGlaQ4LGA7DOitRXS8" name="Page-1">
        <mxGraphModel dx="1506" dy="1130" grid="1" gridSize="10" guides="1" tooltips="1" connect="1" arrows="0" fold="1" page="0" pageScale="1" pageWidth="850" pageHeight="1100" math="0" shadow="0">
            <root>
                <mxCell id="0"/>
                <mxCell id="1" parent="0"/>
                <mxCell id="9" style="edgeStyle=none;html=1;exitX=1;exitY=0.5;exitDx=0;exitDy=0;entryX=0;entryY=0.5;entryDx=0;entryDy=0;" edge="1" parent="1" source="2" target="7">
                    <mxGeometry relative="1" as="geometry"/>
                </mxCell>
                <mxCell id="2" value="/kyma/module-manifests" style="rounded=1;whiteSpace=wrap;html=1;arcSize=60;strokeWidth=2;horizontal=1;verticalAlign=top;" vertex="1" parent="1">
                    <mxGeometry x="121" y="150" width="290" height="80" as="geometry"/>
                </mxCell>
                <mxCell id="4" value="/modules/telemetry/1.34.0/module-config.yaml" style="rounded=1;whiteSpace=wrap;html=1;arcSize=60;strokeWidth=2;" vertex="1" parent="1">
                    <mxGeometry x="131" y="180" width="270" height="40" as="geometry"/>
                </mxCell>
                <mxCell id="5" value="" style="shape=actor;horizontalLabelPosition=right;align=left;labelPosition=right;strokeWidth=2;aspect=fixed;" vertex="1" parent="1">
                    <mxGeometry x="31" y="165" width="35" height="50" as="geometry"/>
                </mxCell>
                <mxCell id="0.4" value="Best viewed with the &lt;a href=&quot;https://github.com/ariel-bentu/tam-drawio&quot;&gt;TAM plugin&lt;/a&gt;" style="text;html=1;shape=tamPluginMissing;" vertex="1" connectable="0" parent="1">
                    <mxGeometry x="620.75" y="800" width="200" height="25" as="geometry"/>
                </mxCell>
                <mxCell id="7" value="Submission Pipeline" style="shape=agent;offsetSize=8;strokeWidth=2;verticalAlign=top;" vertex="1" parent="1">
                    <mxGeometry x="440" y="150" width="180" height="80" as="geometry"/>
                </mxCell>
                <mxCell id="8" value="modulectl" style="shape=agent;offsetSize=8;strokeWidth=2;" vertex="1" parent="1">
                    <mxGeometry x="460" y="178" width="140" height="40" as="geometry"/>
                </mxCell>
                <mxCell id="32" style="edgeStyle=none;html=1;exitX=1;exitY=0.5;exitDx=0;exitDy=0;entryX=0.5;entryY=0;entryDx=0;entryDy=0;" edge="1" parent="1" source="10" target="31">
                    <mxGeometry relative="1" as="geometry">
                        <Array as="points">
                            <mxPoint x="1030" y="230"/>
                        </Array>
                    </mxGeometry>
                </mxCell>
                <mxCell id="10" value="/kyma/kyma-modules" style="rounded=1;whiteSpace=wrap;html=1;arcSize=60;strokeWidth=2;verticalAlign=top;" vertex="1" parent="1">
                    <mxGeometry x="680" y="190" width="280" height="80" as="geometry"/>
                </mxCell>
                <mxCell id="11" value="/telemetry/&lt;br&gt;moduletemplate-telemetry-1.34.0.yaml" style="rounded=1;whiteSpace=wrap;html=1;arcSize=60;strokeWidth=2;" vertex="1" parent="1">
                    <mxGeometry x="700" y="218" width="240" height="40" as="geometry"/>
                </mxCell>
                <mxCell id="12" value="" style="shape=updateedge;endArrow=none;exitX=1;exitY=0.5;exitDx=0;exitDy=0;entryX=0;entryY=0.5;entryDx=0;entryDy=0;" edge="1" parent="1">
                    <mxGeometry width="80" height="30" relative="1" as="geometry">
                        <mxPoint x="620" y="225" as="sourcePoint"/>
                        <mxPoint x="680" y="265" as="targetPoint"/>
                    </mxGeometry>
                </mxCell>
                <mxCell id="15" value="" style="shape=useedge;endArrow=none;edgeStyle=none;useSignPosition=up;useSignDirection=east;exitX=1;exitY=0.5;exitDx=0;exitDy=0;entryX=0;entryY=0.5;entryDx=0;entryDy=0;" edge="1" parent="1" source="5" target="2">
                    <mxGeometry width="160" relative="1" as="geometry">
                        <mxPoint x="621" y="200" as="sourcePoint"/>
                        <mxPoint x="781" y="200" as="targetPoint"/>
                    </mxGeometry>
                </mxCell>
                <mxCell id="16" value="Module&lt;div&gt;Developer&lt;div&gt;&lt;br&gt;&lt;/div&gt;&lt;/div&gt;" style="text;html=1;align=center;verticalAlign=middle;resizable=0;points=[];autosize=1;strokeColor=none;fillColor=none;" vertex="1" parent="1">
                    <mxGeometry x="8.5" y="220" width="80" height="60" as="geometry"/>
                </mxCell>
                <mxCell id="17" style="edgeStyle=none;html=1;exitX=1;exitY=0.5;exitDx=0;exitDy=0;entryX=0;entryY=0.5;entryDx=0;entryDy=0;" edge="1" parent="1" source="18" target="21">
                    <mxGeometry relative="1" as="geometry"/>
                </mxCell>
                <mxCell id="18" value="/kyma/module-manifests" style="rounded=1;whiteSpace=wrap;html=1;arcSize=60;strokeWidth=2;horizontal=1;verticalAlign=top;" vertex="1" parent="1">
                    <mxGeometry x="121" y="337.5" width="290" height="80" as="geometry"/>
                </mxCell>
                <mxCell id="19" value="/modules/telemetry/module-releases.yaml" style="rounded=1;whiteSpace=wrap;html=1;arcSize=60;strokeWidth=2;" vertex="1" parent="1">
                    <mxGeometry x="131" y="367.5" width="270" height="40" as="geometry"/>
                </mxCell>
                <mxCell id="20" value="" style="shape=actor;horizontalLabelPosition=right;align=left;labelPosition=right;strokeWidth=2;aspect=fixed;" vertex="1" parent="1">
                    <mxGeometry x="31" y="352.5" width="35" height="50" as="geometry"/>
                </mxCell>
                <mxCell id="21" value="Submission Pipeline" style="shape=agent;offsetSize=8;strokeWidth=2;verticalAlign=middle;" vertex="1" parent="1">
                    <mxGeometry x="440" y="337.5" width="180" height="80" as="geometry"/>
                </mxCell>
                <mxCell id="33" style="edgeStyle=none;html=1;exitX=1;exitY=0.5;exitDx=0;exitDy=0;entryX=0.5;entryY=1;entryDx=0;entryDy=0;" edge="1" parent="1" source="23" target="31">
                    <mxGeometry relative="1" as="geometry">
                        <Array as="points">
                            <mxPoint x="1030" y="385"/>
                        </Array>
                    </mxGeometry>
                </mxCell>
                <mxCell id="23" value="/kyma/kyma-modules" style="rounded=1;whiteSpace=wrap;html=1;arcSize=60;strokeWidth=2;verticalAlign=top;" vertex="1" parent="1">
                    <mxGeometry x="680" y="320" width="280" height="130" as="geometry"/>
                </mxCell>
                <mxCell id="25" value="" style="shape=updateedge;endArrow=none;exitX=1;exitY=0.5;exitDx=0;exitDy=0;entryX=0;entryY=0.5;entryDx=0;entryDy=0;" edge="1" parent="1" source="21" target="23">
                    <mxGeometry width="80" height="30" relative="1" as="geometry">
                        <mxPoint x="650" y="402.5" as="sourcePoint"/>
                        <mxPoint x="730" y="402.5" as="targetPoint"/>
                    </mxGeometry>
                </mxCell>
                <mxCell id="26" value="" style="shape=useedge;endArrow=none;edgeStyle=none;useSignPosition=up;useSignDirection=east;exitX=1;exitY=0.5;exitDx=0;exitDy=0;entryX=0;entryY=0.5;entryDx=0;entryDy=0;" edge="1" parent="1" source="20" target="18">
                    <mxGeometry width="160" relative="1" as="geometry">
                        <mxPoint x="621" y="387.5" as="sourcePoint"/>
                        <mxPoint x="781" y="387.5" as="targetPoint"/>
                    </mxGeometry>
                </mxCell>
                <mxCell id="27" value="Module&lt;div&gt;Developer&lt;div&gt;&lt;br&gt;&lt;/div&gt;&lt;/div&gt;" style="text;html=1;align=center;verticalAlign=middle;resizable=0;points=[];autosize=1;strokeColor=none;fillColor=none;" vertex="1" parent="1">
                    <mxGeometry x="8.5" y="407.5" width="80" height="60" as="geometry"/>
                </mxCell>
                <mxCell id="29" value="/telemetry/&amp;lt;landscape&amp;gt;/module-release-meta.yaml" style="rounded=1;whiteSpace=wrap;html=1;arcSize=60;strokeWidth=2;" vertex="1" parent="1">
                    <mxGeometry x="720" y="350" width="210" height="37.5" as="geometry"/>
                </mxCell>
                <mxCell id="30" value="/kustomizations/&amp;lt;landscape&amp;gt;/&lt;div&gt;kustomization.yaml&lt;/div&gt;" style="rounded=1;whiteSpace=wrap;html=1;arcSize=60;strokeWidth=2;" vertex="1" parent="1">
                    <mxGeometry x="720" y="400" width="210" height="37.5" as="geometry"/>
                </mxCell>
                <mxCell id="31" value="ArgoCD" style="shape=agent;offsetSize=8;strokeWidth=2;" vertex="1" parent="1">
                    <mxGeometry x="980" y="250" width="100" height="60" as="geometry"/>
                </mxCell>
                <mxCell id="34" value="&amp;lt;landscape&amp;gt; KCP" style="rounded=1;whiteSpace=wrap;html=1;arcSize=60;strokeWidth=2;verticalAlign=top;" vertex="1" parent="1">
                    <mxGeometry x="1132" y="240" width="301" height="80" as="geometry"/>
                </mxCell>
                <mxCell id="35" value="" style="shape=updateedge;endArrow=none;entryX=0;entryY=0.5;entryDx=0;entryDy=0;exitX=1;exitY=0.5;exitDx=0;exitDy=0;" edge="1" parent="1" source="31" target="34">
                    <mxGeometry width="80" height="30" relative="1" as="geometry">
                        <mxPoint x="1200" y="280" as="sourcePoint"/>
                        <mxPoint x="1250" y="280" as="targetPoint"/>
                    </mxGeometry>
                </mxCell>
                <mxCell id="36" value="&amp;lt;ModuleTemplate&amp;gt;&lt;div&gt;telemetry-1.34.0&lt;/div&gt;" style="rounded=1;whiteSpace=wrap;html=1;arcSize=60;strokeWidth=2;" vertex="1" parent="1">
                    <mxGeometry x="1142" y="266" width="130" height="40" as="geometry"/>
                </mxCell>
                <mxCell id="39" value="&amp;lt;ModuleReleaseMeta&amp;gt;&lt;div&gt;telemetry&lt;/div&gt;" style="rounded=1;whiteSpace=wrap;html=1;arcSize=60;strokeWidth=2;" vertex="1" parent="1">
                    <mxGeometry x="1282" y="266" width="140" height="40" as="geometry"/>
                </mxCell>
                <mxCell id="40" value="1)" style="text;html=1;align=center;verticalAlign=middle;whiteSpace=wrap;rounded=0;fontStyle=1;fontSize=18;fontColor=#FFB366;" vertex="1" parent="1">
                    <mxGeometry x="51" y="110" width="60" height="30" as="geometry"/>
                </mxCell>
                <mxCell id="41" value="2)" style="text;html=1;align=center;verticalAlign=middle;whiteSpace=wrap;rounded=0;fontStyle=1;fontSize=18;fontColor=#FFB366;" vertex="1" parent="1">
                    <mxGeometry x="51" y="307.5" width="60" height="30" as="geometry"/>
                </mxCell>
                <mxCell id="42" value="3)" style="text;html=1;align=center;verticalAlign=middle;whiteSpace=wrap;rounded=0;fontStyle=1;fontSize=18;fontColor=#FFB366;" vertex="1" parent="1">
                    <mxGeometry x="940" y="337.5" width="60" height="30" as="geometry"/>
                </mxCell>
                <mxCell id="43" value="OCI Registry&lt;div&gt;&lt;font color=&quot;#000000&quot;&gt;&lt;br&gt;&lt;/font&gt;&lt;div&gt;&amp;nbsp;europe-docker.pkg.dev/kyma-project/modules-internal&lt;/div&gt;&lt;/div&gt;" style="rounded=1;whiteSpace=wrap;html=1;arcSize=60;strokeWidth=2;verticalAlign=top;" vertex="1" parent="1">
                    <mxGeometry x="680" y="98" width="280" height="80" as="geometry"/>
                </mxCell>
                <mxCell id="46" value="" style="shape=updateedge;endArrow=none;exitX=1;exitY=0.5;exitDx=0;exitDy=0;entryX=0;entryY=0.5;entryDx=0;entryDy=0;" edge="1" parent="1">
                    <mxGeometry width="80" height="30" relative="1" as="geometry">
                        <mxPoint x="621" y="155" as="sourcePoint"/>
                        <mxPoint x="681" y="195" as="targetPoint"/>
                    </mxGeometry>
                </mxCell>
                <mxCell id="47" style="edgeStyle=none;html=1;exitX=1;exitY=0.5;exitDx=0;exitDy=0;entryX=0;entryY=0.5;entryDx=0;entryDy=0;" edge="1" parent="1" source="48" target="51">
                    <mxGeometry relative="1" as="geometry"/>
                </mxCell>
                <mxCell id="48" value="/kyma/module-manifests" style="rounded=1;whiteSpace=wrap;html=1;arcSize=60;strokeWidth=2;horizontal=1;verticalAlign=top;" vertex="1" parent="1">
                    <mxGeometry x="121" y="640" width="290" height="80" as="geometry"/>
                </mxCell>
                <mxCell id="49" value="/modules/telemetry/module-releases.yaml" style="rounded=1;whiteSpace=wrap;html=1;arcSize=60;strokeWidth=2;" vertex="1" parent="1">
                    <mxGeometry x="131" y="670" width="270" height="40" as="geometry"/>
                </mxCell>
                <mxCell id="50" value="" style="shape=actor;horizontalLabelPosition=right;align=left;labelPosition=right;strokeWidth=2;aspect=fixed;" vertex="1" parent="1">
                    <mxGeometry x="31" y="655" width="35" height="50" as="geometry"/>
                </mxCell>
                <mxCell id="51" value="Submission Pipeline" style="shape=agent;offsetSize=8;strokeWidth=2;verticalAlign=middle;" vertex="1" parent="1">
                    <mxGeometry x="440" y="640" width="180" height="80" as="geometry"/>
                </mxCell>
                <mxCell id="52" style="edgeStyle=none;html=1;exitX=1;exitY=0.5;exitDx=0;exitDy=0;entryX=0.5;entryY=1;entryDx=0;entryDy=0;" edge="1" parent="1" source="53">
                    <mxGeometry relative="1" as="geometry">
                        <mxPoint x="1030" y="612.5" as="targetPoint"/>
                        <Array as="points">
                            <mxPoint x="1030" y="687.5"/>
                        </Array>
                    </mxGeometry>
                </mxCell>
                <mxCell id="53" value="/kyma/kyma-modules" style="rounded=1;whiteSpace=wrap;html=1;arcSize=60;strokeWidth=2;verticalAlign=top;" vertex="1" parent="1">
                    <mxGeometry x="680" y="622.5" width="280" height="130" as="geometry"/>
                </mxCell>
                <mxCell id="54" value="" style="shape=updateedge;endArrow=none;exitX=1;exitY=0.5;exitDx=0;exitDy=0;entryX=0;entryY=0.5;entryDx=0;entryDy=0;" edge="1" parent="1" source="51" target="53">
                    <mxGeometry width="80" height="30" relative="1" as="geometry">
                        <mxPoint x="650" y="705" as="sourcePoint"/>
                        <mxPoint x="730" y="705" as="targetPoint"/>
                    </mxGeometry>
                </mxCell>
                <mxCell id="55" value="" style="shape=useedge;endArrow=none;edgeStyle=none;useSignPosition=up;useSignDirection=east;exitX=1;exitY=0.5;exitDx=0;exitDy=0;entryX=0;entryY=0.5;entryDx=0;entryDy=0;" edge="1" parent="1" source="50" target="48">
                    <mxGeometry width="160" relative="1" as="geometry">
                        <mxPoint x="621" y="690" as="sourcePoint"/>
                        <mxPoint x="781" y="690" as="targetPoint"/>
                    </mxGeometry>
                </mxCell>
                <mxCell id="56" value="Module&lt;div&gt;Developer&lt;div&gt;&lt;br&gt;&lt;/div&gt;&lt;/div&gt;" style="text;html=1;align=center;verticalAlign=middle;resizable=0;points=[];autosize=1;strokeColor=none;fillColor=none;" vertex="1" parent="1">
                    <mxGeometry x="8.5" y="710" width="80" height="60" as="geometry"/>
                </mxCell>
                <mxCell id="57" value="/telemetry/&amp;lt;landscape&amp;gt;/module-release-meta.yaml" style="rounded=1;whiteSpace=wrap;html=1;arcSize=60;strokeWidth=2;" vertex="1" parent="1">
                    <mxGeometry x="720" y="652.5" width="210" height="37.5" as="geometry"/>
                </mxCell>
                <mxCell id="58" value="/kustomizations/&amp;lt;landscape&amp;gt;/&lt;div&gt;kustomization.yaml&lt;/div&gt;" style="rounded=1;whiteSpace=wrap;html=1;arcSize=60;strokeWidth=2;" vertex="1" parent="1">
                    <mxGeometry x="720" y="702.5" width="210" height="37.5" as="geometry"/>
                </mxCell>
                <mxCell id="59" value="4)" style="text;html=1;align=center;verticalAlign=middle;whiteSpace=wrap;rounded=0;fontStyle=1;fontSize=18;fontColor=#FFB366;" vertex="1" parent="1">
                    <mxGeometry x="51" y="610" width="60" height="30" as="geometry"/>
                </mxCell>
                <mxCell id="60" value="3)" style="text;html=1;align=center;verticalAlign=middle;whiteSpace=wrap;rounded=0;fontStyle=1;fontSize=18;fontColor=#FFB366;" vertex="1" parent="1">
                    <mxGeometry x="940" y="640" width="60" height="30" as="geometry"/>
                </mxCell>
            </root>
        </mxGraphModel>
    </diagram>
</mxfile>